<mxfile host="drawio-plugin" modified="2023-02-17T00:56:13.349Z" agent="5.0 (Macintosh; Intel Mac OS X 10_15_7) AppleWebKit/537.36 (KHTML, like Gecko) Chrome/98.0.4758.102 Safari/537.36" etag="H2OM1LZimOjBIvaHze6R" version="20.5.3" type="embed"><diagram name="Page-1" id="jS8F1ADs8I6Hi9jjLk5z"><mxGraphModel dx="333" dy="548" grid="1" gridSize="10" guides="1" tooltips="1" connect="1" arrows="1" fold="1" page="1" pageScale="1" pageWidth="827" pageHeight="1169" math="0" shadow="0"><root><object label="" id="0"><mxCell/></object><mxCell id="1" parent="0"/><mxCell id="DJ0czKl9UQRm-ZR2SoeP-65" value="" style="whiteSpace=wrap;html=1;aspect=fixed;fillColor=default;" parent="1" vertex="1"><mxGeometry x="170" y="90" width="510" height="510" as="geometry"/></mxCell><mxCell id="DJ0czKl9UQRm-ZR2SoeP-66" style="edgeStyle=orthogonalEdgeStyle;rounded=0;orthogonalLoop=1;jettySize=auto;html=1;exitX=0;exitY=1;exitDx=0;exitDy=0;exitPerimeter=0;entryX=0.5;entryY=0;entryDx=0;entryDy=0;" parent="1" source="DJ0czKl9UQRm-ZR2SoeP-67" target="DJ0czKl9UQRm-ZR2SoeP-84" edge="1"><mxGeometry relative="1" as="geometry"><Array as="points"><mxPoint x="610" y="230"/></Array></mxGeometry></mxCell><mxCell id="DJ0czKl9UQRm-ZR2SoeP-67" value="Administrator" style="shape=umlActor;verticalLabelPosition=bottom;verticalAlign=top;html=1;outlineConnect=0;" parent="1" vertex="1"><mxGeometry x="730" y="170" width="30" height="60" as="geometry"/></mxCell><mxCell id="DJ0czKl9UQRm-ZR2SoeP-68" style="edgeStyle=orthogonalEdgeStyle;rounded=0;orthogonalLoop=1;jettySize=auto;html=1;entryX=0;entryY=0.5;entryDx=0;entryDy=0;" parent="1" source="DJ0czKl9UQRm-ZR2SoeP-71" target="DJ0czKl9UQRm-ZR2SoeP-72" edge="1"><mxGeometry relative="1" as="geometry"><mxPoint x="200" y="90" as="targetPoint"/><Array as="points"><mxPoint x="260" y="210"/><mxPoint x="260" y="170"/></Array></mxGeometry></mxCell><mxCell id="DJ0czKl9UQRm-ZR2SoeP-69" style="edgeStyle=orthogonalEdgeStyle;rounded=0;orthogonalLoop=1;jettySize=auto;html=1;exitX=1;exitY=1;exitDx=0;exitDy=0;exitPerimeter=0;entryX=0.5;entryY=0;entryDx=0;entryDy=0;startArrow=none;" parent="1" source="DJ0czKl9UQRm-ZR2SoeP-71" target="DJ0czKl9UQRm-ZR2SoeP-79" edge="1"><mxGeometry relative="1" as="geometry"><Array as="points"><mxPoint x="230" y="240"/><mxPoint x="230" y="310"/><mxPoint x="320" y="310"/></Array></mxGeometry></mxCell><mxCell id="DJ0czKl9UQRm-ZR2SoeP-70" style="edgeStyle=orthogonalEdgeStyle;rounded=0;orthogonalLoop=1;jettySize=auto;html=1;exitX=0;exitY=1;exitDx=0;exitDy=0;exitPerimeter=0;" parent="1" source="DJ0czKl9UQRm-ZR2SoeP-71" target="DJ0czKl9UQRm-ZR2SoeP-80" edge="1"><mxGeometry relative="1" as="geometry"><mxPoint x="100" y="310" as="targetPoint"/><Array as="points"><mxPoint x="70" y="240"/><mxPoint x="70" y="310"/><mxPoint x="98" y="310"/></Array></mxGeometry></mxCell><mxCell id="DJ0czKl9UQRm-ZR2SoeP-71" value="End-user" style="shape=umlActor;verticalLabelPosition=bottom;verticalAlign=top;html=1;outlineConnect=0;" parent="1" vertex="1"><mxGeometry x="80" y="180" width="30" height="60" as="geometry"/></mxCell><mxCell id="DJ0czKl9UQRm-ZR2SoeP-72" value="SearchTheBookings" style="ellipse;whiteSpace=wrap;html=1;" parent="1" vertex="1"><mxGeometry x="280" y="130" width="120" height="80" as="geometry"/></mxCell><mxCell id="DJ0czKl9UQRm-ZR2SoeP-73" style="edgeStyle=orthogonalEdgeStyle;rounded=0;orthogonalLoop=1;jettySize=auto;html=1;entryX=0.5;entryY=1;entryDx=0;entryDy=0;" parent="1" source="DJ0czKl9UQRm-ZR2SoeP-74" target="DJ0czKl9UQRm-ZR2SoeP-72" edge="1"><mxGeometry relative="1" as="geometry"><mxPoint x="280" y="150" as="targetPoint"/><Array as="points"><mxPoint x="400" y="230"/><mxPoint x="340" y="230"/></Array></mxGeometry></mxCell><mxCell id="DJ0czKl9UQRm-ZR2SoeP-74" value="ByBookingNr" style="ellipse;whiteSpace=wrap;html=1;" parent="1" vertex="1"><mxGeometry x="360" y="270" width="80" height="40" as="geometry"/></mxCell><mxCell id="DJ0czKl9UQRm-ZR2SoeP-75" style="edgeStyle=orthogonalEdgeStyle;rounded=0;orthogonalLoop=1;jettySize=auto;html=1;entryX=1;entryY=0.5;entryDx=0;entryDy=0;" parent="1" source="DJ0czKl9UQRm-ZR2SoeP-76" target="DJ0czKl9UQRm-ZR2SoeP-72" edge="1"><mxGeometry relative="1" as="geometry"><mxPoint x="385" y="100" as="targetPoint"/><Array as="points"><mxPoint x="505" y="170"/></Array></mxGeometry></mxCell><mxCell id="DJ0czKl9UQRm-ZR2SoeP-76" value="ByBookingDate" style="ellipse;whiteSpace=wrap;html=1;" parent="1" vertex="1"><mxGeometry x="460" y="180" width="90" height="50" as="geometry"/></mxCell><mxCell id="DJ0czKl9UQRm-ZR2SoeP-77" value="&amp;lt;&amp;lt;include&amp;lt;&amp;lt;" style="text;html=1;strokeColor=none;fillColor=none;align=center;verticalAlign=middle;whiteSpace=wrap;rounded=0;rotation=0;" parent="1" vertex="1"><mxGeometry x="414" y="140" width="60" height="30" as="geometry"/></mxCell><mxCell id="DJ0czKl9UQRm-ZR2SoeP-78" value="&amp;lt;&amp;lt;include&amp;lt;&amp;lt;" style="text;html=1;strokeColor=none;fillColor=none;align=center;verticalAlign=middle;whiteSpace=wrap;rounded=0;rotation=0;" parent="1" vertex="1"><mxGeometry x="220" y="192.5" width="10" height="15" as="geometry"/></mxCell><mxCell id="DJ0czKl9UQRm-ZR2SoeP-79" value="ViewBookings" style="ellipse;whiteSpace=wrap;html=1;" parent="1" vertex="1"><mxGeometry x="270" y="320" width="100" height="60" as="geometry"/></mxCell><mxCell id="DJ0czKl9UQRm-ZR2SoeP-80" value="CreateBookings" style="ellipse;whiteSpace=wrap;html=1;" parent="1" vertex="1"><mxGeometry x="210" y="400" width="90" height="50" as="geometry"/></mxCell><mxCell id="DJ0czKl9UQRm-ZR2SoeP-81" style="edgeStyle=orthogonalEdgeStyle;rounded=0;orthogonalLoop=1;jettySize=auto;html=1;entryX=0.4;entryY=0;entryDx=0;entryDy=0;entryPerimeter=0;" parent="1" source="DJ0czKl9UQRm-ZR2SoeP-84" target="DJ0czKl9UQRm-ZR2SoeP-86" edge="1"><mxGeometry relative="1" as="geometry"><mxPoint x="520" y="350" as="targetPoint"/><Array as="points"><mxPoint x="540" y="310"/><mxPoint x="540" y="390"/><mxPoint x="470" y="390"/></Array></mxGeometry></mxCell><mxCell id="DJ0czKl9UQRm-ZR2SoeP-82" style="edgeStyle=orthogonalEdgeStyle;rounded=0;orthogonalLoop=1;jettySize=auto;html=1;entryX=0.5;entryY=0;entryDx=0;entryDy=0;" parent="1" source="DJ0czKl9UQRm-ZR2SoeP-84" target="DJ0czKl9UQRm-ZR2SoeP-85" edge="1"><mxGeometry relative="1" as="geometry"><mxPoint x="690" y="350" as="targetPoint"/><Array as="points"><mxPoint x="620" y="380"/><mxPoint x="620" y="380"/></Array></mxGeometry></mxCell><mxCell id="DJ0czKl9UQRm-ZR2SoeP-83" style="edgeStyle=orthogonalEdgeStyle;rounded=0;orthogonalLoop=1;jettySize=auto;html=1;entryX=0.5;entryY=0;entryDx=0;entryDy=0;" parent="1" source="DJ0czKl9UQRm-ZR2SoeP-84" target="DJ0czKl9UQRm-ZR2SoeP-87" edge="1"><mxGeometry relative="1" as="geometry"><Array as="points"><mxPoint x="670" y="300"/><mxPoint x="670" y="500"/><mxPoint x="550" y="500"/></Array></mxGeometry></mxCell><mxCell id="DJ0czKl9UQRm-ZR2SoeP-84" value="ManageBookings" style="ellipse;whiteSpace=wrap;html=1;" parent="1" vertex="1"><mxGeometry x="560" y="280" width="100" height="60" as="geometry"/></mxCell><mxCell id="DJ0czKl9UQRm-ZR2SoeP-85" value="AddBookings" style="ellipse;whiteSpace=wrap;html=1;" parent="1" vertex="1"><mxGeometry x="580" y="410" width="80" height="40" as="geometry"/></mxCell><mxCell id="DJ0czKl9UQRm-ZR2SoeP-86" value="UpdateBookings" style="ellipse;whiteSpace=wrap;html=1;" parent="1" vertex="1"><mxGeometry x="430" y="405" width="100" height="40" as="geometry"/></mxCell><mxCell id="DJ0czKl9UQRm-ZR2SoeP-87" value="DeleteBookings" style="ellipse;whiteSpace=wrap;html=1;" parent="1" vertex="1"><mxGeometry x="500" y="510" width="100" height="40" as="geometry"/></mxCell><mxCell id="DJ0czKl9UQRm-ZR2SoeP-88" value="&amp;lt;&amp;lt;include&amp;lt;&amp;lt;" style="text;html=1;strokeColor=none;fillColor=none;align=center;verticalAlign=middle;whiteSpace=wrap;rounded=0;rotation=90;" parent="1" vertex="1"><mxGeometry x="530" y="337.5" width="10" height="15" as="geometry"/></mxCell><mxCell id="DJ0czKl9UQRm-ZR2SoeP-89" value="&amp;lt;&amp;lt;include&amp;lt;&amp;lt;" style="text;html=1;strokeColor=none;fillColor=none;align=center;verticalAlign=middle;whiteSpace=wrap;rounded=0;rotation=-90;" parent="1" vertex="1"><mxGeometry x="605" y="365" width="10" height="15" as="geometry"/></mxCell><mxCell id="DJ0czKl9UQRm-ZR2SoeP-101" value="&amp;lt;&amp;lt;include&amp;lt;&amp;lt;" style="text;html=1;strokeColor=none;fillColor=none;align=center;verticalAlign=middle;whiteSpace=wrap;rounded=0;rotation=0;" parent="1" vertex="1"><mxGeometry x="587.5" y="480" width="65" height="15" as="geometry"/></mxCell><mxCell id="DJ0czKl9UQRm-ZR2SoeP-102" value="&amp;lt;&amp;lt;include&amp;lt;&amp;lt;" style="text;html=1;strokeColor=none;fillColor=none;align=center;verticalAlign=middle;whiteSpace=wrap;rounded=0;rotation=0;" parent="1" vertex="1"><mxGeometry x="360" y="230" width="10" height="15" as="geometry"/></mxCell></root></mxGraphModel></diagram></mxfile>